<?xml version="1.0" encoding="utf-8"?>
<!-- Generator: Adobe Illustrator 27.5.0, SVG Export Plug-In . SVG Version: 6.00 Build 0)  -->
<svg version="1.1" xmlns="http://www.w3.org/2000/svg" xmlns:xlink="http://www.w3.org/1999/xlink" x="0px" y="0px"
	 viewBox="0 0 500 500" style="enable-background:new 0 0 500 500;" xml:space="preserve">
<g id="BACKGROUND">
	<rect style="fill:#FFFFFF;" width="500" height="500"/>
</g>
<g id="OBJECTS">
	<g style="opacity:0.4;">
		<path style="fill:#969696;" d="M475.243,256.648c-12.578-17.493-33.206-26.895-52.336-36.808
			c-19.13-9.913-38.897-22.486-46.666-42.583c-11.169-28.893,6.295-63.361-6.093-91.753c-10.775-24.694-41.962-35.599-68.337-30.096
			s-48.274,23.832-66.047,44.081c-17.773,20.249-32.673,43.031-51.925,61.879c-27.754,27.171-63.133,44.851-96.764,64.283
			c-24.743,14.296-49.856,30.825-63.437,55.968c-10.415,19.281-12.906,42.96-5.52,63.591c7.387,20.632,24.894,37.651,46.077,43.265
			c32.83,8.701,66.325-9.545,94.399-28.661c28.074-19.115,57.912-40.758,91.859-39.687c34.001,1.073,62.767,24.766,95.343,34.566
			c35.627,10.718,77.408,1.321,111.26-12.568C488.884,329.067,494.008,282.746,475.243,256.648z"/>
		<path style="fill:#969696;" d="M98.715,406.74c-11.754-0.742-23.507-1.483-35.261-2.225c-3.874-0.244-7.98-0.442-11.404,1.389
			c-6.351,3.396-7.444,12.685-3.985,19.002c3.459,6.317,10.064,10.205,16.583,13.267c8.51,3.997,17.565,7.155,26.95,7.728
			c9.384,0.573,19.171-1.637,26.559-7.452c5.522-4.347,14.169-16.38,9.812-23.743C123.659,407.422,105.839,407.189,98.715,406.74z"
			/>
	</g>
	<g>
		<g>
			<path style="fill:#5C5C5C;" d="M381.109,322.961H118.934c-6.253,0-11.323-5.069-11.323-11.323V138.477
				c0-6.253,5.069-11.323,11.323-11.323h262.175c6.253,0,11.323,5.069,11.323,11.323v173.161
				C392.432,317.891,387.363,322.961,381.109,322.961z"/>
			<path style="fill:none;stroke:#121D30;stroke-width:0.75;stroke-miterlimit:10;" d="M374.102,311.439
				c0,2.568-2.082,4.649-4.65,4.649c-2.568,0-4.649-2.082-4.649-4.649c0-2.568,2.082-4.65,4.649-4.65
				C372.02,306.789,374.102,308.871,374.102,311.439z"/>
			<rect x="118.786" y="143.576" style="fill:#FFFFFF;" width="262.472" height="152.93"/>
			<g>
				<path style="fill:none;stroke:#121D30;stroke-width:0.75;stroke-miterlimit:10;" d="M137.875,157.839
					c0,2.239-1.815,4.054-4.054,4.054c-2.239,0-4.054-1.815-4.054-4.054c0-2.239,1.815-4.054,4.054-4.054
					C136.06,153.784,137.875,155.599,137.875,157.839z"/>
				<path style="fill:none;stroke:#121D30;stroke-width:0.75;stroke-miterlimit:10;" d="M152.37,157.839
					c0,2.239-1.815,4.054-4.054,4.054c-2.239,0-4.054-1.815-4.054-4.054c0-2.239,1.815-4.054,4.054-4.054
					C150.555,153.784,152.37,155.599,152.37,157.839z"/>
				<path style="fill:none;stroke:#121D30;stroke-width:0.75;stroke-miterlimit:10;" d="M166.865,157.839
					c0,2.239-1.815,4.054-4.054,4.054c-2.239,0-4.054-1.815-4.054-4.054c0-2.239,1.815-4.054,4.054-4.054
					C165.05,153.784,166.865,155.599,166.865,157.839z"/>
			</g>
		</g>
		<g>
			<g>
				<path style="fill:#EDB837;" d="M128.585,178.465l4.85,9.312h49.912c1.434,0,2.596,1.162,2.596,2.596v65.549
					c0,1.434-1.162,2.596-2.596,2.596H87.619c-1.434,0-2.596-1.162-2.596-2.596v-63.278v-4.868v-8.113
					c0-1.434,1.162-2.596,2.596-2.596h38.663C127.25,177.068,128.138,177.606,128.585,178.465z"/>
				<path style="fill:none;stroke:#121D30;stroke-width:0.75;stroke-miterlimit:10;" d="M87.619,177.068h38.663
					c0.968,0,1.855,0.538,2.302,1.397l4.85,9.312h49.912c1.434,0,2.596,1.162,2.596,2.596v65.549"/>
				<g>
					<circle style="fill:#2E363D;" cx="135.483" cy="224.046" r="18.601"/>
					<path style="fill:#FFFFFF;" d="M143.413,230.963l-6.917-6.918l6.917-6.917c0.278-0.278,0.278-0.734,0-1.012
						c-0.278-0.278-0.734-0.278-1.012,0l-6.917,6.918l-6.918-6.918c-0.278-0.278-0.734-0.278-1.012,0
						c-0.278,0.278-0.278,0.734,0,1.012l6.918,6.918l-6.918,6.918c-0.278,0.278-0.278,0.734,0,1.012
						c0.278,0.278,0.734,0.278,1.012,0l6.918-6.918l6.917,6.918c0.278,0.278,0.734,0.278,1.012,0
						C143.691,231.697,143.691,231.242,143.413,230.963z"/>
				</g>
			</g>
			<g>
				<path style="fill:#EDB837;" d="M243.102,178.465l4.85,9.312h49.912c1.434,0,2.596,1.162,2.596,2.596v65.549
					c0,1.434-1.162,2.596-2.596,2.596h-95.728c-1.434,0-2.596-1.162-2.596-2.596v-63.278v-4.868v-8.113
					c0-1.434,1.162-2.596,2.596-2.596h38.663C241.767,177.068,242.655,177.606,243.102,178.465z"/>
				<path style="fill:none;stroke:#121D30;stroke-width:0.75;stroke-miterlimit:10;" d="M202.136,177.068h38.663
					c0.968,0,1.855,0.538,2.302,1.397l4.85,9.312h49.912c1.434,0,2.596,1.162,2.596,2.596v65.549"/>
				<g>
					<circle style="fill:#2E363D;" cx="250" cy="224.046" r="18.601"/>
					<path style="fill:#FFFFFF;" d="M257.929,230.963l-6.917-6.918l6.917-6.917c0.278-0.278,0.278-0.734,0-1.012
						c-0.278-0.278-0.734-0.278-1.012,0L250,223.034l-6.918-6.918c-0.278-0.278-0.734-0.278-1.012,0
						c-0.278,0.278-0.278,0.734,0,1.012l6.918,6.918l-6.918,6.918c-0.278,0.278-0.278,0.734,0,1.012
						c0.278,0.278,0.734,0.278,1.012,0l6.918-6.918l6.917,6.918c0.278,0.278,0.734,0.278,1.012,0
						C258.208,231.697,258.208,231.242,257.929,230.963z"/>
				</g>
			</g>
			<g>
				<path style="fill:#EDB837;" d="M357.618,178.465l4.85,9.312h49.912c1.434,0,2.596,1.162,2.596,2.596v65.549
					c0,1.434-1.162,2.596-2.596,2.596h-95.728c-1.434,0-2.596-1.162-2.596-2.596v-63.278v-4.868v-8.113
					c0-1.434,1.162-2.596,2.596-2.596h38.663C356.284,177.068,357.171,177.606,357.618,178.465z"/>
				<path style="fill:none;stroke:#121D30;stroke-width:0.75;stroke-miterlimit:10;" d="M316.653,177.068h38.663
					c0.968,0,1.855,0.538,2.302,1.397l4.85,9.312h49.912c1.434,0,2.596,1.162,2.596,2.596v65.549"/>
				<g>
					<circle style="fill:#2E363D;" cx="364.517" cy="224.046" r="18.601"/>
					<path style="fill:#FFFFFF;" d="M372.446,230.963l-6.917-6.918l6.917-6.917c0.278-0.278,0.278-0.734,0-1.012
						c-0.278-0.278-0.734-0.278-1.012,0l-6.918,6.918l-6.918-6.918c-0.278-0.278-0.734-0.278-1.012,0
						c-0.278,0.278-0.278,0.734,0,1.012l6.918,6.918l-6.918,6.918c-0.278,0.278-0.278,0.734,0,1.012
						c0.278,0.278,0.734,0.278,1.012,0l6.918-6.918l6.918,6.918c0.278,0.278,0.733,0.278,1.012,0
						C372.724,231.697,372.725,231.242,372.446,230.963z"/>
				</g>
			</g>
		</g>
	</g>
	<g>
		<g>
			<g>
				<g>
					<path style="fill:#121D30;" d="M366.78,143.134c0,0-9.024-13.165-20.31-6.601c-14.128,8.216,2.935,27.789-7.508,33.453
						c-10.443,5.664-21.24,6.105-24.249,21.771c-3.934,20.482,33.114,49.278,64.443,31.047
						c31.329-18.231,20.184-52.351,5.471-59.142C366.926,155.49,366.78,143.134,366.78,143.134z"/>
					<path style="fill:#D28A7B;" d="M360.595,174.032v18.081c0,2.342,0.952,4.461,2.488,5.996c1.527,1.536,3.646,2.488,5.988,2.488
						c4.684,0,8.475-3.8,8.475-8.484v-18.081H360.595z"/>
					<g>
						<path style="fill:#D28A7B;" d="M390.469,168.443c-0.704,3.436-4.059,5.651-7.496,4.948c-3.436-0.703-5.651-4.059-4.948-7.495
							c0.703-3.436,4.059-5.652,7.495-4.948C388.957,161.651,391.172,165.007,390.469,168.443z"/>
						
							<line style="fill:none;stroke:#121D30;stroke-width:0.75;stroke-miterlimit:10;" x1="388.728" y1="166.036" x2="383.696" y2="169.441"/>
					</g>
					<g>
						<path style="fill:#D28A7B;" d="M354.52,167.169c-0.703,3.436-4.059,5.651-7.496,4.948c-3.436-0.703-5.651-4.059-4.948-7.495
							c0.703-3.436,4.059-5.652,7.495-4.948C353.009,160.377,355.224,163.733,354.52,167.169z"/>
						<path style="fill:#121D30;" d="M348.894,165.895c0,0-3.632-3.972-2.356-13.391h5.092L348.894,165.895z"/>
						
							<line style="fill:none;stroke:#121D30;stroke-width:0.75;stroke-miterlimit:10;" x1="349.345" y1="168.697" x2="344.418" y2="163.925"/>
					</g>
					<path style="fill:#D28A7B;" d="M364.813,141.076c-9.12,0-16.514,7.393-16.514,16.514v13.569c0,0.338,0.027,0.666,0.071,0.995
						c0.24,1.599,1.057,3.074,2.328,4.123l6.691,5.562c2.026,1.688,4.869,2.017,7.242,0.826l13.035-6.54
						c2.248-1.137,3.661-3.439,3.661-5.944v-12.592C381.327,148.469,373.933,141.076,364.813,141.076L364.813,141.076z"/>
					<path style="fill:none;stroke:#121D30;stroke-width:0.75;stroke-miterlimit:10;" d="M372.558,178.592l-7.583,3.805
						c-1.282,0.643-2.697,0.978-4.132,0.978h-0.565"/>
					<polyline style="fill:none;stroke:#121D30;stroke-width:0.75;stroke-miterlimit:10;" points="362.224,141.076 358.025,169.99 
						363.294,169.99 					"/>
					<path style="fill:#CB705D;" d="M348.299,162.077v8.468c0.196,0.027,0.4,0.044,0.613,0.044c2.363,0,4.283-1.91,4.283-4.283
						c0-2.364-1.919-4.274-4.283-4.274C348.699,162.033,348.494,162.051,348.299,162.077z"/>
					<circle style="fill:#CB705D;" cx="372.698" cy="166.311" r="4.282"/>
					<g>
						<path style="fill:#121D30;" d="M351.447,162.224c0,1.48,0.661,2.681,1.476,2.681c0.815,0,1.476-1.2,1.476-2.681
							c0-1.481-0.661-2.681-1.476-2.681C352.108,159.543,351.447,160.743,351.447,162.224z"/>
						<path style="fill:#121D30;" d="M366.92,162.224c0,1.48,0.661,2.681,1.476,2.681c0.815,0,1.476-1.2,1.476-2.681
							c0-1.481-0.661-2.681-1.476-2.681C367.581,159.543,366.92,160.743,366.92,162.224z"/>
					</g>
					<path style="fill:#121D30;" d="M381.327,156.037v10.705c0,0-4.251-3.776-4.133-11.21L381.327,156.037z"/>
					<g>
						<path style="fill:#121D30;" d="M353.882,150.866c-1.338-2.043-2.638-2.29-3.501,0.433L353.882,150.866z"/>
						<path style="fill:#121D30;" d="M372.213,151.635c-0.196-2.434-1.218-3.274-3.28-1.298L372.213,151.635z"/>
					</g>
					<path style="fill:#121D30;" d="M343.567,138.799c11.289-6.562,23.218,4.331,23.218,4.331s-5.764,12.402,17.843,20.528
						c3.887,1.338,8.732,7.86,11.074,11.592c0,0-5.172-14.92-6.802-24.571c-1.639-9.659-10.217-8.167-10.217-8.167
						s-5.198-12.704-19.576-12.644C349.147,129.911,343.567,138.799,343.567,138.799z"/>
				</g>
				<path style="fill:#121D30;" d="M363.281,176.422c-2.621-5.275-5.242,0-5.242,0H363.281z"/>
			</g>
			<path style="fill:#DBA094;" d="M290.64,251.058l40.865-21.805l11.506,11.17l-0.004,0.004
				c-8.666,8.192-19.436,13.817-31.111,16.249l-21.971,3.412L290.64,251.058z"/>
			<path style="fill:#DBA094;" d="M331.578,239.127L331.578,239.127c2.799,3.515,7.918,4.094,11.432,1.295l31.619-25.183
				c3.515-2.799,4.094-7.918,1.295-11.432l0,0c-2.799-3.514-7.918-4.094-11.432-1.295l-32.988,26.741
				C331.504,229.253,328.779,235.613,331.578,239.127z"/>
			<g>
				<polygon style="fill:#5C5C5C;" points="332.249,220.463 347.85,219.436 364.275,224.779 347.851,225.418 				"/>
				<path style="fill:#969696;" d="M337.364,205.897l-2.559,20.45l24.619,3.398l-3.602-36.621l-6.73,0.917
					C342.947,194.878,338.134,199.743,337.364,205.897z"/>
				<polygon style="fill:#FFFFFF;" points="332.249,220.463 347.851,225.418 364.275,224.779 361.128,233.983 346.702,233.234 
					331.409,228.45 				"/>
			</g>
			<path style="fill:#969696;" d="M349.838,258.036h32.546l20.916-40.575c3.445-6.683,0.572-14.889-6.29-17.963l-21.61-9.681
				l-19.578,3.307c-6.778,1.145-11.519,7.332-10.861,14.175L349.838,258.036z"/>
			<polygon style="fill:#969696;" points="358.592,204.467 356.17,188.503 383.562,185.844 381.017,204.467 			"/>
			<g>
				<path style="fill:#121D30;" d="M380.712,197.201c-2.221,7.797-7.588,23.603-15.155,26.011c-0.414,0.132-0.815,0.198-1.192,0.198
					c-0.915,0-1.736-0.383-2.509-1.17c-3.911-3.983-4.941-16.311-5.203-23.582c2.061,4.487,5.673,7.107,10.131,7.107
					C371.625,205.766,376.557,202.694,380.712,197.201 M382.58,193.033c-4.79,8.196-10.713,11.982-15.796,11.982
					c-5.358,0-9.783-4.207-10.961-11.891c0,0-0.569,31.036,8.543,31.036c0.449,0,0.922-0.076,1.419-0.234
					C376.372,220.557,382.58,193.033,382.58,193.033L382.58,193.033z"/>
			</g>
			<g>
				<polygon style="fill:#DBA094;" points="342.646,447.27 326.243,447.27 332.924,396.53 349.327,396.53 				"/>
				<polygon style="fill:#DEDEDE;" points="344.208,447.193 325.736,447.193 328.693,423.051 346.993,424.451 				"/>
				<g>
					<path style="fill:#EDB837;" d="M345.65,462.26h-41.907l1.095-3.741c0.361-1.22,0.899-2.354,1.586-3.378
						c1.457-2.179,3.591-3.857,6.127-4.75l1.135-0.4c1.114-0.392,2.158-0.908,3.126-1.533c0.833-0.538,1.606-1.148,2.303-1.838
						c1.522-1.482,2.722-3.298,3.493-5.346h23.547l-0.391,13.866L345.65,462.26z"/>
					
						<line style="fill:none;stroke:#121D30;stroke-width:0.75;stroke-miterlimit:10;" x1="329.554" y1="443.641" x2="321.275" y2="443.641"/>
					
						<line style="fill:none;stroke:#121D30;stroke-width:0.75;stroke-miterlimit:10;" x1="327.418" y1="446.524" x2="319.14" y2="446.524"/>
					<g>
						<path style="fill:none;stroke:#121D30;stroke-width:0.75;stroke-miterlimit:10;" d="M337.785,452.179
							c0.018,0.564-0.425,1.022-0.99,1.022c-0.564,0-1.036-0.457-1.054-1.022c-0.018-0.564,0.425-1.022,0.99-1.022
							C337.295,451.157,337.767,451.615,337.785,452.179z"/>
						<path style="fill:none;stroke:#121D30;stroke-width:0.75;stroke-miterlimit:10;" d="M332.785,452.179
							c0.018,0.564-0.425,1.022-0.99,1.022c-0.564,0-1.036-0.457-1.054-1.022c-0.018-0.564,0.425-1.022,0.99-1.022
							S332.767,451.615,332.785,452.179z"/>
					</g>
					<path style="fill:#DEDEDE;" d="M345.65,462.26h-41.907l1.095-3.741c0.361-1.22,0.899-2.354,1.586-3.378h39.34L345.65,462.26z"
						/>
					
						<line style="fill:none;stroke:#121D30;stroke-width:0.75;stroke-miterlimit:10;" x1="345.876" y1="458.701" x2="319.522" y2="458.701"/>
					<path style="fill:#DEDEDE;" d="M327.262,462.26h-23.52l1.095-3.741c0.361-1.22,0.899-2.354,1.586-3.378
						c1.457-2.179,3.591-3.857,6.127-4.75l1.135-0.4c1.114-0.392,2.158-0.908,3.126-1.533
						C322.266,450.98,326.329,456.13,327.262,462.26z"/>
					<path style="fill:#EDB837;" d="M322.608,441.276l-0.538-2.085c-0.379-1.468,0.694-2.865,2.199-2.865h2.099
						c1.658,0,3.228,0.842,4.169,2.236l1.834,2.714H322.608z"/>
				</g>
			</g>
			<g>
				<polygon style="fill:#2E363D;" points="391.315,249.97 346.073,247.518 350.038,258.981 387.701,258.574 				"/>
				<path style="fill:#2E363D;" d="M350.038,258.981c0,0-15.497,14.328-16.415,39.882h69.301c0-24.017-15.223-40.29-15.223-40.29
					L350.038,258.981z"/>
				<path style="fill:none;stroke:#FFFFFF;stroke-width:0.75;stroke-miterlimit:10;" d="M389.919,268.589h-10.867
					c0,0,5.365,12.372,16.056,13.185"/>
				<path style="fill:none;stroke:#FFFFFF;stroke-width:0.75;stroke-miterlimit:10;" d="M342.624,268.589h5.991
					c0,0-2.29,11.713-12.015,13.185"/>
				<path style="fill:none;stroke:#FFFFFF;stroke-width:0.75;stroke-miterlimit:10;" d="M362.932,259.755l1.047,18.963
					c0,0,3.518-1.869,2.769-8.183"/>
				
					<rect x="375.587" y="257.025" transform="matrix(-1 -1.224647e-16 1.224647e-16 -1 761.0414 517.9701)" style="fill:#121D30;" width="9.868" height="3.92"/>
				
					<rect x="351.603" y="257.025" transform="matrix(-1 -1.224647e-16 1.224647e-16 -1 706.6407 517.9701)" style="fill:#121D30;" width="3.434" height="3.92"/>
				
					<rect x="357.301" y="257.025" transform="matrix(-1 -1.224647e-16 1.224647e-16 -1 730.1456 517.9701)" style="fill:#121D30;" width="15.544" height="3.92"/>
				
					<rect x="360.211" y="256.237" transform="matrix(-1 -1.224647e-16 1.224647e-16 -1 727.0726 517.9703)" style="fill:#FFFFFF;" width="6.65" height="5.497"/>
			</g>
			<g>
				<polygon style="fill:#DBA094;" points="406.147,447.236 389.742,447.974 381.352,392.911 397.757,392.174 				"/>
				<polygon style="fill:#DEDEDE;" points="407.091,447.193 388.639,448.023 385.453,422.936 403.874,424.044 				"/>
				<g>
					<path style="fill:#EDB837;" d="M410.688,462.26h-41.907l0.368-3.741c0.124-1.22,0.442-2.354,0.93-3.378
						c1.033-2.179,2.84-3.857,5.203-4.75l1.057-0.4c1.037-0.392,1.981-0.908,2.828-1.533c0.728-0.538,1.382-1.148,1.946-1.838
						c1.234-1.482,2.081-3.298,2.453-5.346h23.547l2.306,13.866L410.688,462.26z"/>
					
						<line style="fill:none;stroke:#121D30;stroke-width:0.75;stroke-miterlimit:10;" x1="390.97" y1="443.641" x2="382.692" y2="443.641"/>
					
						<line style="fill:none;stroke:#121D30;stroke-width:0.75;stroke-miterlimit:10;" x1="389.395" y1="446.524" x2="381.117" y2="446.524"/>
					<g>
						<path style="fill:none;stroke:#121D30;stroke-width:0.75;stroke-miterlimit:10;" d="M400.862,452.179
							c0.127,0.564-0.227,1.022-0.791,1.022c-0.564,0-1.125-0.457-1.253-1.022c-0.128-0.564,0.227-1.022,0.791-1.022
							C400.174,451.157,400.734,451.615,400.862,452.179z"/>
						<path style="fill:none;stroke:#121D30;stroke-width:0.75;stroke-miterlimit:10;" d="M395.862,452.179
							c0.128,0.564-0.227,1.022-0.791,1.022c-0.564,0-1.125-0.457-1.253-1.022c-0.128-0.564,0.227-1.022,0.791-1.022
							S395.735,451.615,395.862,452.179z"/>
					</g>
					<path style="fill:#DEDEDE;" d="M410.688,462.26h-41.907l0.368-3.741c0.124-1.22,0.442-2.354,0.93-3.378h39.34L410.688,462.26z"
						/>
					
						<line style="fill:none;stroke:#121D30;stroke-width:0.75;stroke-miterlimit:10;" x1="383.561" y1="458.701" x2="409.915" y2="458.701"/>
					<path style="fill:#DEDEDE;" d="M392.3,462.26h-23.52l0.368-3.741c0.124-1.22,0.442-2.354,0.93-3.378
						c1.033-2.179,2.84-3.857,5.203-4.75l1.057-0.4c1.037-0.392,1.981-0.908,2.828-1.533
						C385.111,450.98,390.174,456.13,392.3,462.26z"/>
					<path style="fill:#EDB837;" d="M383.565,441.276l-0.943-2.085c-0.664-1.468,0.136-2.865,1.642-2.865h2.099
						c1.657,0,3.392,0.842,4.604,2.236l2.362,2.714H383.565z"/>
				</g>
			</g>
			<polygon style="fill:#2E363D;" points="366.732,297.633 356.856,417.724 322.545,417.724 333.721,298.122 			"/>
			<polygon style="fill:#2E363D;" points="397.495,352.669 409.575,417.724 375.265,417.724 364.484,353.158 			"/>
			<path style="fill:#2E363D;" d="M397.495,352.669c0,0,5.429-35.659,5.404-53.989h-34.311l-4.104,54.478L397.495,352.669z"/>
			<path style="fill:#969696;" d="M349.639,211.058c-11.627,17.209-11.026,25.453,3.254,31.757L349.639,211.058z"/>
			<polyline style="fill:none;stroke:#121D30;stroke-width:0.75;stroke-miterlimit:10;" points="341.497,225.418 347.909,213.701 
				344.961,207.299 			"/>
			<g>
				<path style="fill:#DBA094;" d="M292.689,247.101l8.594,13.482c-8.057,3.281-13.559,5.94-13.559,5.94
					c-4.055-1.321-7.087-4.39-9.071-7.056l9.131-5.202c-4.328,0.623-8.324,2.525-10.259,3.571c-1.126-1.747-1.69-3.039-1.69-3.039
					C284.987,249.551,292.689,247.101,292.689,247.101z"/>
				<path style="fill:none;stroke:#121D30;stroke-width:0.75;stroke-miterlimit:10;" d="M280.573,261.781
					c7.208-3.273,10.609-4.895,10.609-4.895"/>
				
					<line style="fill:none;stroke:#121D30;stroke-width:0.75;stroke-miterlimit:10;" x1="283.9" y1="264.412" x2="293.258" y2="259.795"/>
				<g>
					<g>
						<path style="fill:#969696;" d="M310.262,283.273L310.262,283.273c-3.068,3.068-8.043,3.068-11.112,0l-22.907-22.907
							l11.112-11.112l22.907,22.907C313.33,275.23,313.33,280.205,310.262,283.273z"/>
						
							<line style="fill:none;stroke:#121D30;stroke-width:0.75;stroke-miterlimit:10;" x1="279.125" y1="263.375" x2="295.75" y2="279.875"/>
					</g>
					<path style="opacity:0.11;fill:#FFFFFF;" d="M250.923,238.244c1.078,1.078,1.078,2.827,0,3.906
						c-1.079,1.078-2.827,1.078-3.906,0c-1.079-1.079-1.079-2.827,0-3.906C248.096,237.166,249.845,237.166,250.923,238.244z"/>
					<g>
						<path style="fill:#5C5C5C;" d="M287.981,251.589l-9.403,9.403c-1.204,1.204-3.175,1.204-4.379,0l-5.851-5.851
							c-1.204-1.204-1.204-3.175,0-4.379l9.403-9.403c1.204-1.204,3.175-1.204,4.379,0l5.851,5.851
							C289.185,248.414,289.185,250.385,287.981,251.589z"/>
						<path style="fill:none;stroke:#121D30;stroke-width:0.75;stroke-miterlimit:10;" d="M277.751,241.359
							c1.204-1.204,3.175-1.204,4.379,0l5.851,5.851c1.204,1.204,1.204,3.175,0,4.379l-9.403,9.403"/>
					</g>
					<path style="fill:#969696;stroke:#1D1615;stroke-width:0.75;stroke-miterlimit:10;" d="M226.774,198.742
						c-13.473,12.898-13.941,34.353-1.043,47.827c12.898,13.473,34.353,13.941,47.827,1.043
						c13.474-12.898,13.941-34.354,1.043-47.827C261.703,186.312,240.248,185.844,226.774,198.742z M268.341,205.779
						c9.594,10.021,9.245,25.979-0.776,35.573c-10.021,9.594-25.979,9.246-35.573-0.776c-9.594-10.021-9.246-25.979,0.775-35.573
						C242.789,195.41,258.747,195.758,268.341,205.779z"/>
					<circle style="opacity:0.19;fill:#FFFFFF;" cx="249.816" cy="222.827" r="26.893"/>
					<circle style="opacity:0.11;fill:#FFFFFF;" cx="239.531" cy="227.15" r="10.285"/>
					<path style="opacity:0.11;fill:#FFFFFF;" d="M262.178,210.464c2.221,2.221,3.715,4.893,4.491,7.72l4.896-2.675
						c-1.093-3.255-2.93-6.316-5.523-8.909c-8.962-8.962-23.492-8.962-32.454,0l3.864,3.864
						C244.281,203.637,255.351,203.637,262.178,210.464z"/>
					<path style="fill:#5C5C5C;" d="M227.122,200.134c-12.533,12.533-12.533,32.854,0,45.387c12.533,12.533,32.854,12.533,45.387,0
						c12.533-12.533,12.533-32.853,0-45.387C259.976,187.6,239.656,187.6,227.122,200.134z M268.832,241.844
						c-10.502,10.502-27.53,10.502-38.033,0c-10.502-10.503-10.502-27.53,0-38.033c10.502-10.502,27.53-10.502,38.033,0
						C279.335,214.313,279.335,231.341,268.832,241.844z"/>
					<g style="opacity:0.11;">
						<path style="fill:#FFFFFF;" d="M266.756,227.15c-0.749,2.946-2.272,5.735-4.577,8.04l3.864,3.864
							c3.376-3.376,5.479-7.543,6.311-11.904H266.756z"/>
					</g>
				</g>
				<path style="fill:#DBA094;" d="M306.216,246.052l-23.377-2.221l0,0c-0.25,2.633,1.681,4.97,4.314,5.22l3.255,0.309l3.44,4.033
					c5.777,15.484,16.659,2.918,16.659,2.918L306.216,246.052z"/>
				<path style="fill:none;stroke:#121D30;stroke-width:0.75;stroke-miterlimit:10;" d="M303.794,257.58
					c-8.904,1.88-10.511-7.482-10.511-7.482l-6.129-1.047"/>
			</g>
			<polyline style="fill:none;stroke:#FFFFFF;stroke-width:0.75;stroke-miterlimit:10;" points="351.603,417.724 363.536,294.991 
				369.55,294.991 			"/>
			<path style="fill:none;stroke:#FFFFFF;stroke-width:0.75;stroke-miterlimit:10;" d="M385.455,260.945
				c0,0,14.526,20.289,11.529,42.505c-2.997,22.216-5.669,49.219-5.669,49.219l13.446,65.055"/>
			
				<line style="fill:none;stroke:#121D30;stroke-width:0.75;stroke-miterlimit:10;" x1="404.523" y1="428.716" x2="386.098" y2="428.013"/>
			
				<line style="fill:none;stroke:#121D30;stroke-width:0.75;stroke-miterlimit:10;" x1="346.993" y1="428.365" x2="328.23" y2="426.837"/>
		</g>
		<g>
			<path style="fill:#DBA094;" d="M347.913,231.601L347.913,231.601c1.677,4.168,6.416,6.188,10.584,4.511l38.991-15.138
				c4.168-1.677,6.188-6.416,4.511-10.584l0,0c-1.677-4.168-6.416-6.188-10.584-4.511l-37.491,14.895
				c-3.011,1.242-5.387,3.775-6.156,6.94C347.457,228.997,347.41,230.35,347.913,231.601z"/>
			<g>
				<path style="fill:#969696;" d="M395.465,224.87l-17.254,5.818l-4.207-21.627l17.104-7.563c7.188-3.178,15.275,2.062,15.31,9.921
					l0,0c0.007,1.515-0.273,3.029-0.905,4.406C403.571,220.06,399.954,223.356,395.465,224.87z"/>
				<polygon style="fill:#FFFFFF;" points="384.464,232.125 379.271,217.227 376.316,206.154 367.843,210.931 376.764,234.41 				
					"/>
			</g>
			<g>
				<g>
					<path style="fill:#DBA094;" d="M358.115,192.585c6.246-4.479,14.147-5.415,14.147-5.415l-4.408-13.465
						c-13.061,3.528-16.394,9.839-17.727,13.75L358.115,192.585z"/>
					<path style="fill:#DBA094;" d="M372.262,187.17c0,0,6.108-3.641,8.248-9.313l-4.197-7.362c0,0-3.655,5.028-7.477,6.209
						c0,0,4.571-4.838,5.011-8.552l-2.514-0.414c0,0-3.118,5.339-8.585,8.225L372.262,187.17z"/>
				</g>
				<path style="fill:none;stroke:#121D30;stroke-width:0.75;stroke-miterlimit:10;" d="M379.397,176.012
					c0,0-3.662,5.008-7.183,7.71"/>
				<path style="fill:none;stroke:#121D30;stroke-width:0.75;stroke-miterlimit:10;" d="M377.8,173.104c0,0-2.984,4.745-7.591,7.591
					"/>
			</g>
			<path style="fill:#DBA094;" d="M363.823,222.798l-5.826-34.575l-7.545-1.634c-5.513,14.773-7.641,30.298-2.625,44.785
				L363.823,222.798z"/>
			
				<line style="fill:none;stroke:#121D30;stroke-width:0.75;stroke-miterlimit:10;" x1="363.066" y1="217.142" x2="364.511" y2="227.939"/>
		</g>
		<line style="fill:none;stroke:#121D30;stroke-miterlimit:10;" x1="34.003" y1="462.26" x2="484.003" y2="462.26"/>
	</g>
	<g>
		<g>
			<path style="fill:#2E363D;" d="M444.044,97.442c-1.952-0.442-3.815-1.337-5.387-2.589l0.507-0.637
				c1.477,1.176,3.226,2.017,5.06,2.431L444.044,97.442z M450.019,97.437l-0.181-0.794c1.833-0.419,3.581-1.263,5.054-2.442
				l0.509,0.636C453.831,96.093,451.971,96.992,450.019,97.437z M434.921,90.19c-0.884-1.824-1.334-3.783-1.338-5.824l0.814-0.002
				c0.004,1.917,0.427,3.758,1.257,5.47L434.921,90.19z M459.126,90.166l-0.733-0.354c0.827-1.714,1.246-3.556,1.246-5.474
				l0.583-0.038l0.231,0.02C460.453,86.38,460.007,88.34,459.126,90.166z M435.631,78.887l-0.735-0.352
				c0.866-1.805,2.151-3.424,3.717-4.68l0.509,0.635C437.652,75.671,436.444,77.191,435.631,78.887z M458.372,78.818
				c-0.823-1.69-2.04-3.203-3.519-4.375l0.506-0.638c1.574,1.247,2.869,2.858,3.744,4.657L458.372,78.818z M444.174,72.038
				l-0.183-0.794c0.986-0.227,2.003-0.342,3.022-0.342c0.002,0,0.004,0,0.004,0c0.996,0,1.988,0.109,2.95,0.324l-0.178,0.794
				c-0.903-0.202-1.836-0.304-2.77-0.304c0,0-0.003,0-0.005,0C446.055,71.717,445.1,71.825,444.174,72.038z"/>
		</g>
		<g>
			<path style="fill:#2E363D;" d="M41.037,133.711c-0.002,0-0.004,0-0.006,0l-0.237-0.001l0.008-0.814l0.229,0.001
				c0.002,0,0.004,0,0.005,0c1.797,0,3.59-0.193,5.331-0.574l0.174,0.795C44.744,133.511,42.892,133.711,41.037,133.711z
				 M35.06,133.012c-1.877-0.448-3.705-1.111-5.434-1.97l0.363-0.729c1.674,0.832,3.444,1.474,5.26,1.907L35.06,133.012z
				 M52.009,131.249l-0.349-0.736c1.684-0.798,3.282-1.791,4.751-2.951l0.505,0.639C55.399,129.399,53.748,130.424,52.009,131.249z
				 M24.775,127.902c-1.492-1.224-2.847-2.617-4.028-4.142l0.643-0.498c1.144,1.476,2.457,2.826,3.901,4.01L24.775,127.902z
				 M61.02,124.135l-0.634-0.51c1.174-1.458,2.182-3.047,2.997-4.725l0.732,0.355C63.273,120.988,62.232,122.63,61.02,124.135z
				 M17.744,118.826c-0.811-1.751-1.422-3.597-1.817-5.485l0.797-0.167c0.382,1.828,0.974,3.614,1.759,5.31L17.744,118.826z
				 M66.035,113.802l-0.794-0.181c0.414-1.812,0.625-3.682,0.625-5.559h0.814C66.68,110,66.463,111.931,66.035,113.802z
				 M16.201,107.604l-0.814-0.014c0.035-1.936,0.287-3.863,0.75-5.728l0.79,0.196C16.479,103.863,16.235,105.729,16.201,107.604z
				 M65.429,103.397c-0.349-1.835-0.907-3.632-1.661-5.342l0.745-0.328c0.778,1.766,1.355,3.623,1.716,5.518L65.429,103.397z
				 M18.883,96.815l-0.726-0.369c0.874-1.718,1.945-3.34,3.184-4.823l0.625,0.522C20.767,93.581,19.729,95.152,18.883,96.815z
				 M60.949,93.226c-1.117-1.497-2.405-2.87-3.827-4.081l0.528-0.62c1.469,1.25,2.799,2.669,3.952,4.215L60.949,93.226z
				 M26.012,88.282l-0.493-0.648c1.537-1.168,3.206-2.163,4.962-2.957l0.336,0.742C29.117,86.187,27.501,87.15,26.012,88.282z
				 M52.481,86.018c-1.659-0.863-3.417-1.537-5.224-2.004l0.204-0.788c1.867,0.482,3.683,1.178,5.396,2.07L52.481,86.018z
				 M36.143,83.708l-0.16-0.798c1.65-0.33,3.346-0.497,5.043-0.497c0.244,0,0.477,0.003,0.714,0.009l-0.022,0.814
				c-0.23-0.007-0.474-0.024-0.692-0.01C39.382,83.227,37.739,83.389,36.143,83.708z"/>
		</g>
		<g>
			<circle style="fill:#2E363D;" cx="65.052" cy="122.311" r="7.735"/>
		</g>
		<g>
			<path style="fill:#2E363D;" d="M444.983,296.825c0,3.148-2.552,5.7-5.7,5.7c-3.148,0-5.7-2.552-5.7-5.7
				c0-3.148,2.552-5.7,5.7-5.7C442.431,291.125,444.983,293.677,444.983,296.825z"/>
		</g>
		<g>
			<path style="fill:#2E363D;" d="M441.726,74.539c0,2.249-1.823,4.071-4.071,4.071s-4.071-1.823-4.071-4.071
				c0-2.248,1.823-4.071,4.071-4.071S441.726,72.291,441.726,74.539z"/>
		</g>
		<g>
			<circle style="fill:#2E363D;" cx="167.681" cy="56.593" r="6.107"/>
		</g>
		<g>
			<path style="fill:#2E363D;" d="M178.673,75.32c-0.484,0-0.969-0.031-1.444-0.094l0.106-0.807c1.81,0.238,3.683-0.016,5.363-0.74
				l0.322,0.747C181.646,75.02,180.183,75.32,178.673,75.32z M171.847,72.945c-1.557-1.236-2.751-2.867-3.453-4.717l0.761-0.289
				c0.65,1.713,1.757,3.223,3.199,4.367L171.847,72.945z M187.581,70.77l-0.659-0.478c1.078-1.488,1.732-3.242,1.891-5.071
				l0.811,0.071C189.452,67.268,188.746,69.162,187.581,70.77z M168.495,64.328h-0.814c0-1.989,0.537-3.938,1.553-5.636l0.699,0.418
				C168.992,60.682,168.495,62.486,168.495,64.328z M187.838,59.897c-0.8-1.652-2.034-3.059-3.569-4.072l0.448-0.68
				c1.657,1.093,2.989,2.614,3.853,4.396L187.838,59.897z M173.844,55.366l-0.387-0.716c1.733-0.936,3.743-1.391,5.699-1.304
				l-0.036,0.813C177.312,54.082,175.448,54.5,173.844,55.366z"/>
		</g>
		<g>
			<path style="fill:#2E363D;" d="M451.778,318.634c-1.971-0.147-3.854-0.691-5.597-1.616l0.382-0.719
				c1.643,0.871,3.418,1.384,5.276,1.522L451.778,318.634z M457.553,317.881l-0.269-0.768c1.753-0.612,3.335-1.566,4.704-2.835
				l0.553,0.596C461.09,316.22,459.412,317.232,457.553,317.881z M441.701,313.295c-1.232-1.548-2.114-3.299-2.62-5.204l0.787-0.208
				c0.477,1.795,1.308,3.445,2.471,4.905L441.701,313.295z M465.916,310.126l-0.746-0.326c0.743-1.698,1.119-3.506,1.119-5.376
				h0.814C467.103,306.407,466.704,308.325,465.916,310.126z M466.21,302.96c-0.201-1.85-0.773-3.606-1.7-5.22l0.706-0.405
				c0.984,1.712,1.59,3.575,1.803,5.538L466.21,302.96z M439.57,302.4l-0.805-0.122c0.294-1.951,0.98-3.787,2.036-5.459l0.689,0.436
				C440.494,298.829,439.848,300.56,439.57,302.4z M460.861,293.635c-1.497-1.113-3.174-1.889-4.985-2.304l0.183-0.794
				c1.92,0.441,3.7,1.264,5.287,2.444L460.861,293.635z M445.309,293.306l-0.458-0.673c1.636-1.112,3.448-1.859,5.386-2.219
				l0.148,0.8C448.559,291.554,446.85,292.258,445.309,293.306z"/>
		</g>
	</g>
</g>
</svg>
